<?xml version="1.0" encoding="UTF-8"?>
<svg width="96px" height="18px" viewBox="0 0 96 18" version="1.1" xmlns="http://www.w3.org/2000/svg" xmlns:xlink="http://www.w3.org/1999/xlink">
    <!-- Generator: Sketch 51.3 (57544) - http://www.bohemiancoding.com/sketch -->
    <title>rakam-logo</title>
    <desc>Created with Sketch.</desc>
    <defs></defs>
    <g id="Page-1" stroke="none" stroke-width="1" fill="none" fill-rule="evenodd">
        <g id="rakam-logo" fill="#00B1E1">
            <path d="M33.62356,17.5973153 C33.4300747,17.4034293 33.3333333,17.164804 33.3333333,16.881432 L33.3333333,7.284116 C33.3333333,7.000744 33.4300747,6.75839 33.62356,6.55704667 C33.8170453,6.355704 34.055178,6.25503333 34.3379647,6.25503333 C34.6207513,6.25503333 34.8626047,6.355704 35.0635313,6.55704667 C35.2644587,6.75839 35.3649213,7.000744 35.3649213,7.284116 L35.3649213,8.24608533 C36.406766,6.84413933 37.5751033,6.14317667 38.869968,6.14317667 L38.9815933,6.14317667 C39.26438,6.14317667 39.498792,6.24011867 39.6848353,6.43400467 C39.8708793,6.62789067 39.9639,6.866516 39.9639,7.149888 C39.9639,7.43326 39.8671587,7.66442867 39.6736727,7.84340067 C39.4801873,8.022372 39.2346133,8.11185667 38.9369433,8.11185667 L38.8253173,8.11185667 C38.1109093,8.11185667 37.4560453,8.28709733 36.8607053,8.637584 C36.2653653,8.98807067 35.7667753,9.46905 35.3649213,10.0805367 L35.3649213,16.881432 C35.3649213,17.164804 35.2644587,17.4034293 35.0635313,17.5973153 C34.8626047,17.7912013 34.6207513,17.8881433 34.3379647,17.8881433 C34.055178,17.8881433 33.8170453,17.7912013 33.62356,17.5973153 Z M42.9666313,17.5973153 C42.4085,17.328858 41.965722,16.9373627 41.6382853,16.4228187 C41.310848,15.9082747 41.147132,15.3154393 41.147132,14.6442953 C41.147132,13.540636 41.582468,12.660704 42.4531527,12.004474 C43.3238373,11.348244 44.6000787,11.020134 46.281914,11.020134 L48.983256,11.020134 L48.983256,10.8411633 C48.983256,9.85681867 48.7414027,9.14839867 48.2576893,8.715884 C47.7739753,8.28336867 47.0186493,8.067114 45.9916873,8.067114 C45.4261147,8.067114 44.923804,8.11185667 44.4847407,8.201342 C44.0456773,8.290828 43.55825,8.42505533 43.022444,8.60402667 C42.903376,8.63385533 42.8066347,8.64876933 42.7322173,8.64876933 C42.5089647,8.64876933 42.315482,8.566742 42.1517633,8.40268467 C41.9880447,8.23862733 41.9061867,8.03728667 41.9061867,7.798658 C41.9061867,7.39597133 42.0996693,7.11260333 42.4866407,6.948546 C43.751738,6.41163067 45.0391413,6.14317667 46.34889,6.14317667 C47.3758513,6.14317667 48.242802,6.351974 48.9497687,6.76957467 C49.6567347,7.187176 50.1776493,7.727812 50.512528,8.39149867 C50.8474067,9.055186 51.014844,9.77479133 51.014844,10.5503353 L51.014844,16.881432 C51.014844,17.164804 50.914382,17.4034293 50.7134547,17.5973153 C50.5125273,17.7912013 50.270674,17.8881433 49.9878873,17.8881433 C49.7051007,17.8881433 49.4669687,17.7912013 49.2734827,17.5973153 C49.0799973,17.4034293 48.983256,17.164804 48.983256,16.881432 L48.983256,16.299776 C47.8818773,17.4332647 46.4828493,18 44.78613,18 C44.131256,18 43.524762,17.8657733 42.9666313,17.5973153 Z M47.4428213,15.7293067 C48.0530453,15.4086487 48.566518,15.0096967 48.983256,14.5324387 L48.983256,12.653244 L46.549816,12.653244 C44.3024073,12.653244 43.17872,13.2423507 43.17872,14.4205813 C43.17872,14.9574973 43.36104,15.390006 43.725686,15.7181207 C44.0903313,16.046236 44.6968253,16.2102907 45.5451847,16.2102907 C46.2000587,16.2102907 46.832598,16.049964 47.4428213,15.7293067 Z M54.7208173,17.5973153 C54.5273313,17.4034293 54.43059,17.164804 54.43059,16.881432 L54.43059,2.362416 C54.43059,2.079044 54.5273313,1.83669 54.7208173,1.63534667 C54.9143027,1.43400333 55.1524347,1.33333333 55.4352213,1.33333333 C55.718008,1.33333333 55.9598613,1.43400333 56.1607887,1.63534667 C56.361716,1.83669 56.462178,2.079044 56.462178,2.362416 L56.462178,11.512304 L61.7755613,6.590604 C61.9988133,6.396718 62.2220627,6.299776 62.4453153,6.299776 C62.787636,6.299776 63.0369307,6.396718 63.1932073,6.590604 C63.349484,6.78449 63.4276213,7.01565867 63.4276213,7.284116 C63.4276213,7.53766 63.3011133,7.79119933 63.048094,8.04474267 L59.833274,10.9306487 L63.874124,16.299776 C64.0229593,16.4936627 64.0973753,16.6950027 64.0973753,16.9038033 C64.0973753,17.2020893 64.000634,17.4407147 63.8071487,17.6196867 C63.6136633,17.7986587 63.3680893,17.8881433 63.0704193,17.8881433 C62.921584,17.8881433 62.7727513,17.850858 62.6239167,17.7762867 C62.4750813,17.7017147 62.3485733,17.597316 62.2443893,17.4630873 L58.4044653,12.228188 L56.462178,13.995526 L56.462178,16.881432 C56.462178,17.164804 56.361716,17.4034293 56.1607887,17.5973153 C55.9598613,17.7912013 55.718008,17.8881433 55.4352213,17.8881433 C55.1524347,17.8881433 54.9143027,17.7912013 54.7208173,17.5973153 Z M67.4573093,17.5973153 C66.899178,17.328858 66.4564,16.9373627 66.1289633,16.4228187 C65.801526,15.9082747 65.63781,15.3154393 65.63781,14.6442953 C65.63781,13.540636 66.073146,12.660704 66.9438307,12.004474 C67.814516,11.348244 69.0907567,11.020134 70.772592,11.020134 L73.473934,11.020134 L73.473934,10.8411633 C73.473934,9.85681867 73.2320807,9.14839867 72.7483673,8.715884 C72.2646533,8.28336867 71.5093273,8.067114 70.4823653,8.067114 C69.9167927,8.067114 69.414482,8.11185667 68.9754187,8.201342 C68.5363553,8.290828 68.048928,8.42505533 67.513122,8.60402667 C67.394054,8.63385533 67.2973127,8.64876933 67.2228953,8.64876933 C66.9996427,8.64876933 66.80616,8.566742 66.6424413,8.40268467 C66.4787233,8.23862733 66.3968647,8.03728667 66.3968647,7.798658 C66.3968647,7.39597133 66.5903473,7.11260333 66.9773187,6.948546 C68.242416,6.41163067 69.52982,6.14317667 70.839568,6.14317667 C71.8665293,6.14317667 72.73348,6.351974 73.4404467,6.76957467 C74.1474127,7.187176 74.6683273,7.727812 75.003206,8.39149867 C75.3380853,9.055186 75.505522,9.77479133 75.505522,10.5503353 L75.505522,16.881432 C75.505522,17.164804 75.40506,17.4034293 75.2041327,17.5973153 C75.0032053,17.7912013 74.761352,17.8881433 74.4785653,17.8881433 C74.1957787,17.8881433 73.9576467,17.7912013 73.7641613,17.5973153 C73.5706753,17.4034293 73.473934,17.164804 73.473934,16.881432 L73.473934,16.299776 C72.3725553,17.4332647 70.9735273,18 69.276808,18 C68.621934,18 68.0154407,17.8657733 67.4573093,17.5973153 Z M71.9334993,15.7293067 C72.5437233,15.4086487 73.057196,15.0096967 73.473934,14.5324387 L73.473934,12.653244 L71.040494,12.653244 C68.7930853,12.653244 67.669398,13.2423507 67.669398,14.4205813 C67.669398,14.9574973 67.851718,15.390006 68.216364,15.7181207 C68.5810093,16.046236 69.1875033,16.2102907 70.0358627,16.2102907 C70.6907367,16.2102907 71.323276,16.049964 71.9334993,15.7293067 Z M79.2114953,17.5973153 C79.0180093,17.4034293 78.921268,17.164804 78.921268,16.881432 L78.921268,7.284116 C78.921268,7.000744 79.0180093,6.75839 79.2114953,6.55704667 C79.4049807,6.355704 79.6431133,6.25503333 79.9258993,6.25503333 C80.208686,6.25503333 80.4505393,6.355704 80.6514667,6.55704667 C80.852394,6.75839 80.952856,7.000744 80.952856,7.284116 L80.952856,8.201342 C81.369594,7.60476933 81.8719047,7.11260467 82.4598027,6.724832 C83.0477013,6.33706 83.8104693,6.14317667 84.74813,6.14317667 C85.581606,6.14317667 86.2960033,6.366888 86.8913433,6.814318 C87.4866833,7.26174733 87.9108567,7.80611133 88.163876,8.44742733 C89.0866533,6.91125267 90.4559147,6.14317667 92.271702,6.14317667 C93.105178,6.14317667 93.8009707,6.351974 94.359102,6.76957467 C94.9172333,7.187176 95.3302447,7.72408333 95.5981473,8.38031333 C95.8660507,9.03654333 96,9.72259133 96,10.4384787 L96,16.881432 C96,17.164804 95.899538,17.4034293 95.6986107,17.5973153 C95.4976833,17.7912013 95.25583,17.8881433 94.9730433,17.8881433 C94.6902573,17.8881433 94.4521247,17.7912013 94.2586393,17.5973153 C94.0651533,17.4034293 93.968412,17.164804 93.968412,16.881432 L93.968412,10.8411633 C93.968412,9.87173267 93.7972547,9.15958467 93.454934,8.704698 C93.1126133,8.24981133 92.524724,8.02237133 91.691248,8.02237133 C90.9321893,8.02237133 90.3033713,8.21998333 89.804774,8.61521267 C89.3061767,9.010442 88.8633987,9.52870667 88.476428,10.1700227 L88.476428,16.881432 C88.476428,17.164804 88.375966,17.4034293 88.1750387,17.5973153 C87.9741113,17.7912013 87.732258,17.8881433 87.4494713,17.8881433 C87.1666853,17.8881433 86.9285527,17.7912013 86.7350673,17.5973153 C86.5415813,17.4034293 86.44484,17.164804 86.44484,16.881432 L86.44484,10.8411633 C86.44484,9.87173267 86.2736827,9.15958467 85.931362,8.704698 C85.5890413,8.24981133 85.001152,8.02237133 84.167676,8.02237133 C83.4086173,8.02237133 82.7797993,8.21998333 82.281202,8.61521267 C81.7826047,9.010442 81.3398267,9.52870667 80.952856,10.1700227 L80.952856,16.881432 C80.952856,17.164804 80.852394,17.4034293 80.6514667,17.5973153 C80.4505393,17.7912013 80.208686,17.8881433 79.9258993,17.8881433 C79.6431133,17.8881433 79.4049807,17.7912013 79.2114953,17.5973153 Z M22.6666667,2.66666667 L25.3333333,2.66666667 C25.7015233,2.66666667 26,2.96514333 26,3.33333333 L26,17.3333333 C26,17.7015233 25.7015233,18 25.3333333,18 L22.6666667,18 C22.2984767,18 22,17.7015233 22,17.3333333 L22,3.33333333 C22,2.96514333 22.2984767,2.66666667 22.6666667,2.66666667 Z M8,4.66666667 L10.6666667,4.66666667 C11.0348567,4.66666667 11.3333333,4.96514333 11.3333333,5.33333333 L11.3333333,17.3333333 C11.3333333,17.7015233 11.0348567,18 10.6666667,18 L8,18 C7.63181,18 7.33333333,17.7015233 7.33333333,17.3333333 L7.33333333,5.33333333 C7.33333333,4.96514333 7.63181,4.66666667 8,4.66666667 Z M0.666666667,8 L3.33333333,8 C3.70152333,8 4,8.29847667 4,8.66666667 L4,17.3333333 C4,17.7015233 3.70152333,18 3.33333333,18 L0.666666667,18 C0.298476667,18 0,17.7015233 0,17.3333333 L0,8.66666667 C0,8.29847667 0.298476667,8 0.666666667,8 Z M15.3333333,0 L18,0 C18.36819,0 18.6666667,0.298476667 18.6666667,0.666666667 L18.6666667,17.3333333 C18.6666667,17.7015233 18.36819,18 18,18 L15.3333333,18 C14.9651433,18 14.6666667,17.7015233 14.6666667,17.3333333 L14.6666667,0.666666667 C14.6666667,0.298476667 14.9651433,0 15.3333333,0 Z" id="Shape"></path>
        </g>
    </g>
</svg>